<mxfile host="app.diagrams.net" modified="2024-06-09T14:58:23.263Z" agent="Mozilla/5.0 (Windows NT 10.0; Win64; x64) AppleWebKit/537.36 (KHTML, like Gecko) Chrome/124.0.0.0 Safari/537.36 Edg/124.0.0.0" etag="DEYhsRZtl34zX-YNUT2k" version="24.5.2" type="github">
  <diagram id="R2lEEEUBdFMjLlhIrx00" name="Page-1">
    <mxGraphModel dx="2257" dy="1752" grid="1" gridSize="10" guides="1" tooltips="1" connect="1" arrows="1" fold="1" page="1" pageScale="1" pageWidth="850" pageHeight="1100" math="0" shadow="0" extFonts="Permanent Marker^https://fonts.googleapis.com/css?family=Permanent+Marker">
      <root>
        <mxCell id="0" />
        <mxCell id="1" parent="0" />
        <mxCell id="-a5pa5ZuKvp78xIdVeqp-1" value="intravilan" style="rounded=0;whiteSpace=wrap;html=1;" parent="1" vertex="1">
          <mxGeometry x="-10" y="-320" width="120" height="60" as="geometry" />
        </mxCell>
        <mxCell id="-a5pa5ZuKvp78xIdVeqp-2" value="cvartale" style="rounded=0;whiteSpace=wrap;html=1;" parent="1" vertex="1">
          <mxGeometry x="450" y="-440" width="120" height="60" as="geometry" />
        </mxCell>
        <mxCell id="-a5pa5ZuKvp78xIdVeqp-3" value="drumuri" style="rounded=0;whiteSpace=wrap;html=1;" parent="1" vertex="1">
          <mxGeometry x="-10" y="-60" width="120" height="60" as="geometry" />
        </mxCell>
        <mxCell id="-a5pa5ZuKvp78xIdVeqp-4" value="cladiri" style="rounded=0;whiteSpace=wrap;html=1;" parent="1" vertex="1">
          <mxGeometry x="660" y="-440" width="120" height="60" as="geometry" />
        </mxCell>
        <mxCell id="-a5pa5ZuKvp78xIdVeqp-5" value="zonificare_functionala" style="rounded=0;whiteSpace=wrap;html=1;" parent="1" vertex="1">
          <mxGeometry x="450" y="-320" width="120" height="60" as="geometry" />
        </mxCell>
        <mxCell id="-a5pa5ZuKvp78xIdVeqp-6" value="puncte_de_interes" style="rounded=0;whiteSpace=wrap;html=1;" parent="1" vertex="1">
          <mxGeometry x="450" y="-190" width="120" height="60" as="geometry" />
        </mxCell>
        <mxCell id="-a5pa5ZuKvp78xIdVeqp-7" value="reglementari" style="rounded=0;whiteSpace=wrap;html=1;" parent="1" vertex="1">
          <mxGeometry x="660" y="-320" width="120" height="60" as="geometry" />
        </mxCell>
        <mxCell id="-a5pa5ZuKvp78xIdVeqp-8" value="uat" style="rounded=0;whiteSpace=wrap;html=1;" parent="1" vertex="1">
          <mxGeometry x="-220" y="-320" width="120" height="60" as="geometry" />
        </mxCell>
        <mxCell id="-a5pa5ZuKvp78xIdVeqp-9" value="" style="edgeStyle=entityRelationEdgeStyle;fontSize=12;html=1;endArrow=ERoneToMany;rounded=0;exitX=1;exitY=0.5;exitDx=0;exitDy=0;entryX=0;entryY=0.5;entryDx=0;entryDy=0;" parent="1" source="-a5pa5ZuKvp78xIdVeqp-8" target="-a5pa5ZuKvp78xIdVeqp-1" edge="1">
          <mxGeometry width="100" height="100" relative="1" as="geometry">
            <mxPoint x="350" y="-120" as="sourcePoint" />
            <mxPoint x="450" y="-220" as="targetPoint" />
          </mxGeometry>
        </mxCell>
        <mxCell id="-a5pa5ZuKvp78xIdVeqp-10" value="intravilan_drumuri" style="rounded=0;whiteSpace=wrap;html=1;" parent="1" vertex="1">
          <mxGeometry x="-10" y="-180" width="120" height="60" as="geometry" />
        </mxCell>
        <mxCell id="-a5pa5ZuKvp78xIdVeqp-11" value="" style="fontSize=12;html=1;endArrow=ERoneToMany;rounded=0;exitX=0.5;exitY=1;exitDx=0;exitDy=0;entryX=0.5;entryY=0;entryDx=0;entryDy=0;" parent="1" source="-a5pa5ZuKvp78xIdVeqp-1" target="-a5pa5ZuKvp78xIdVeqp-10" edge="1">
          <mxGeometry width="100" height="100" relative="1" as="geometry">
            <mxPoint x="310" y="-240" as="sourcePoint" />
            <mxPoint x="450" y="-220" as="targetPoint" />
          </mxGeometry>
        </mxCell>
        <mxCell id="-a5pa5ZuKvp78xIdVeqp-12" value="" style="fontSize=12;html=1;endArrow=ERoneToMany;rounded=0;entryX=0.5;entryY=1;entryDx=0;entryDy=0;exitX=0.5;exitY=0;exitDx=0;exitDy=0;" parent="1" source="-a5pa5ZuKvp78xIdVeqp-3" target="-a5pa5ZuKvp78xIdVeqp-10" edge="1">
          <mxGeometry width="100" height="100" relative="1" as="geometry">
            <mxPoint x="350" y="-120" as="sourcePoint" />
            <mxPoint x="450" y="-220" as="targetPoint" />
          </mxGeometry>
        </mxCell>
        <mxCell id="Oj7GcUm4BYMcSamk3wpx-1" value="intravilan_zonificare_functionala" style="rounded=0;whiteSpace=wrap;html=1;" vertex="1" parent="1">
          <mxGeometry x="190" y="-320" width="170" height="60" as="geometry" />
        </mxCell>
        <mxCell id="Oj7GcUm4BYMcSamk3wpx-3" value="" style="edgeStyle=entityRelationEdgeStyle;fontSize=12;html=1;endArrow=ERoneToMany;rounded=0;exitX=1;exitY=0.5;exitDx=0;exitDy=0;entryX=0;entryY=0.5;entryDx=0;entryDy=0;" edge="1" parent="1" source="-a5pa5ZuKvp78xIdVeqp-1" target="Oj7GcUm4BYMcSamk3wpx-1">
          <mxGeometry width="100" height="100" relative="1" as="geometry">
            <mxPoint x="310" y="-100" as="sourcePoint" />
            <mxPoint x="410" y="-200" as="targetPoint" />
          </mxGeometry>
        </mxCell>
        <mxCell id="Oj7GcUm4BYMcSamk3wpx-4" value="" style="edgeStyle=entityRelationEdgeStyle;fontSize=12;html=1;endArrow=ERoneToMany;rounded=0;entryX=1;entryY=0.5;entryDx=0;entryDy=0;exitX=0;exitY=0.5;exitDx=0;exitDy=0;" edge="1" parent="1" source="-a5pa5ZuKvp78xIdVeqp-5" target="Oj7GcUm4BYMcSamk3wpx-1">
          <mxGeometry width="100" height="100" relative="1" as="geometry">
            <mxPoint x="310" y="-100" as="sourcePoint" />
            <mxPoint x="410" y="-200" as="targetPoint" />
          </mxGeometry>
        </mxCell>
        <mxCell id="Oj7GcUm4BYMcSamk3wpx-5" value="" style="edgeStyle=entityRelationEdgeStyle;fontSize=12;html=1;endArrow=ERoneToMany;rounded=0;exitX=1;exitY=0;exitDx=0;exitDy=0;entryX=0;entryY=0.5;entryDx=0;entryDy=0;" edge="1" parent="1" source="-a5pa5ZuKvp78xIdVeqp-1" target="-a5pa5ZuKvp78xIdVeqp-2">
          <mxGeometry width="100" height="100" relative="1" as="geometry">
            <mxPoint x="310" y="-100" as="sourcePoint" />
            <mxPoint x="410" y="-200" as="targetPoint" />
          </mxGeometry>
        </mxCell>
        <mxCell id="Oj7GcUm4BYMcSamk3wpx-6" value="" style="edgeStyle=entityRelationEdgeStyle;fontSize=12;html=1;endArrow=ERoneToMany;rounded=0;exitX=1;exitY=1;exitDx=0;exitDy=0;entryX=0;entryY=0.5;entryDx=0;entryDy=0;" edge="1" parent="1" source="-a5pa5ZuKvp78xIdVeqp-1" target="-a5pa5ZuKvp78xIdVeqp-6">
          <mxGeometry width="100" height="100" relative="1" as="geometry">
            <mxPoint x="120" y="-310" as="sourcePoint" />
            <mxPoint x="460" y="-400" as="targetPoint" />
          </mxGeometry>
        </mxCell>
        <mxCell id="Oj7GcUm4BYMcSamk3wpx-7" value="" style="edgeStyle=entityRelationEdgeStyle;fontSize=12;html=1;endArrow=ERoneToMany;rounded=0;entryX=0;entryY=0.5;entryDx=0;entryDy=0;exitX=1;exitY=0.5;exitDx=0;exitDy=0;" edge="1" parent="1" source="-a5pa5ZuKvp78xIdVeqp-2" target="-a5pa5ZuKvp78xIdVeqp-4">
          <mxGeometry width="100" height="100" relative="1" as="geometry">
            <mxPoint x="310" y="-100" as="sourcePoint" />
            <mxPoint x="410" y="-200" as="targetPoint" />
          </mxGeometry>
        </mxCell>
        <mxCell id="Oj7GcUm4BYMcSamk3wpx-8" value="" style="edgeStyle=entityRelationEdgeStyle;fontSize=12;html=1;endArrow=ERoneToMany;rounded=0;entryX=0;entryY=0.5;entryDx=0;entryDy=0;exitX=1;exitY=0.5;exitDx=0;exitDy=0;" edge="1" parent="1" source="-a5pa5ZuKvp78xIdVeqp-5" target="-a5pa5ZuKvp78xIdVeqp-7">
          <mxGeometry width="100" height="100" relative="1" as="geometry">
            <mxPoint x="310" y="-100" as="sourcePoint" />
            <mxPoint x="410" y="-200" as="targetPoint" />
          </mxGeometry>
        </mxCell>
        <mxCell id="Oj7GcUm4BYMcSamk3wpx-10" value="tip_poi" style="rounded=0;whiteSpace=wrap;html=1;" vertex="1" parent="1">
          <mxGeometry x="660" y="-190" width="120" height="60" as="geometry" />
        </mxCell>
        <mxCell id="Oj7GcUm4BYMcSamk3wpx-11" value="" style="edgeStyle=entityRelationEdgeStyle;fontSize=12;html=1;endArrow=ERmandOne;startArrow=ERmandOne;rounded=0;entryX=0;entryY=0.5;entryDx=0;entryDy=0;exitX=1;exitY=0.5;exitDx=0;exitDy=0;" edge="1" parent="1" source="-a5pa5ZuKvp78xIdVeqp-6" target="Oj7GcUm4BYMcSamk3wpx-10">
          <mxGeometry width="100" height="100" relative="1" as="geometry">
            <mxPoint x="310" y="-100" as="sourcePoint" />
            <mxPoint x="410" y="-200" as="targetPoint" />
          </mxGeometry>
        </mxCell>
        <mxCell id="Oj7GcUm4BYMcSamk3wpx-12" value="uat" style="shape=table;startSize=30;container=1;collapsible=1;childLayout=tableLayout;fixedRows=1;rowLines=0;fontStyle=1;align=center;resizeLast=1;" vertex="1" parent="1">
          <mxGeometry x="-310" y="360" width="250" height="160" as="geometry" />
        </mxCell>
        <mxCell id="Oj7GcUm4BYMcSamk3wpx-13" value="" style="shape=partialRectangle;collapsible=0;dropTarget=0;pointerEvents=0;fillColor=none;points=[[0,0.5],[1,0.5]];portConstraint=eastwest;top=0;left=0;right=0;bottom=1;" vertex="1" parent="Oj7GcUm4BYMcSamk3wpx-12">
          <mxGeometry y="30" width="250" height="30" as="geometry" />
        </mxCell>
        <mxCell id="Oj7GcUm4BYMcSamk3wpx-14" value="PK" style="shape=partialRectangle;overflow=hidden;connectable=0;fillColor=none;top=0;left=0;bottom=0;right=0;fontStyle=1;" vertex="1" parent="Oj7GcUm4BYMcSamk3wpx-13">
          <mxGeometry width="30" height="30" as="geometry">
            <mxRectangle width="30" height="30" as="alternateBounds" />
          </mxGeometry>
        </mxCell>
        <mxCell id="Oj7GcUm4BYMcSamk3wpx-15" value="fid serial not null" style="shape=partialRectangle;overflow=hidden;connectable=0;fillColor=none;top=0;left=0;bottom=0;right=0;align=left;spacingLeft=6;fontStyle=5;" vertex="1" parent="Oj7GcUm4BYMcSamk3wpx-13">
          <mxGeometry x="30" width="220" height="30" as="geometry">
            <mxRectangle width="220" height="30" as="alternateBounds" />
          </mxGeometry>
        </mxCell>
        <mxCell id="Oj7GcUm4BYMcSamk3wpx-16" value="" style="shape=partialRectangle;collapsible=0;dropTarget=0;pointerEvents=0;fillColor=none;points=[[0,0.5],[1,0.5]];portConstraint=eastwest;top=0;left=0;right=0;bottom=0;" vertex="1" parent="Oj7GcUm4BYMcSamk3wpx-12">
          <mxGeometry y="60" width="250" height="30" as="geometry" />
        </mxCell>
        <mxCell id="Oj7GcUm4BYMcSamk3wpx-17" value="" style="shape=partialRectangle;overflow=hidden;connectable=0;fillColor=none;top=0;left=0;bottom=0;right=0;" vertex="1" parent="Oj7GcUm4BYMcSamk3wpx-16">
          <mxGeometry width="30" height="30" as="geometry">
            <mxRectangle width="30" height="30" as="alternateBounds" />
          </mxGeometry>
        </mxCell>
        <mxCell id="Oj7GcUm4BYMcSamk3wpx-18" value="name varchar(50) NOT NULL" style="shape=partialRectangle;overflow=hidden;connectable=0;fillColor=none;top=0;left=0;bottom=0;right=0;align=left;spacingLeft=6;" vertex="1" parent="Oj7GcUm4BYMcSamk3wpx-16">
          <mxGeometry x="30" width="220" height="30" as="geometry">
            <mxRectangle width="220" height="30" as="alternateBounds" />
          </mxGeometry>
        </mxCell>
        <mxCell id="Oj7GcUm4BYMcSamk3wpx-19" value="" style="shape=partialRectangle;collapsible=0;dropTarget=0;pointerEvents=0;fillColor=none;points=[[0,0.5],[1,0.5]];portConstraint=eastwest;top=0;left=0;right=0;bottom=0;" vertex="1" parent="Oj7GcUm4BYMcSamk3wpx-12">
          <mxGeometry y="90" width="250" height="30" as="geometry" />
        </mxCell>
        <mxCell id="Oj7GcUm4BYMcSamk3wpx-20" value="" style="shape=partialRectangle;overflow=hidden;connectable=0;fillColor=none;top=0;left=0;bottom=0;right=0;" vertex="1" parent="Oj7GcUm4BYMcSamk3wpx-19">
          <mxGeometry width="30" height="30" as="geometry">
            <mxRectangle width="30" height="30" as="alternateBounds" />
          </mxGeometry>
        </mxCell>
        <mxCell id="Oj7GcUm4BYMcSamk3wpx-21" value="populatie int NOT NULL" style="shape=partialRectangle;overflow=hidden;connectable=0;fillColor=none;top=0;left=0;bottom=0;right=0;align=left;spacingLeft=6;" vertex="1" parent="Oj7GcUm4BYMcSamk3wpx-19">
          <mxGeometry x="30" width="220" height="30" as="geometry">
            <mxRectangle width="220" height="30" as="alternateBounds" />
          </mxGeometry>
        </mxCell>
        <mxCell id="Oj7GcUm4BYMcSamk3wpx-22" value="" style="shape=partialRectangle;collapsible=0;dropTarget=0;pointerEvents=0;fillColor=none;points=[[0,0.5],[1,0.5]];portConstraint=eastwest;top=0;left=0;right=0;bottom=0;" vertex="1" parent="Oj7GcUm4BYMcSamk3wpx-12">
          <mxGeometry y="120" width="250" height="30" as="geometry" />
        </mxCell>
        <mxCell id="Oj7GcUm4BYMcSamk3wpx-23" value="" style="shape=partialRectangle;overflow=hidden;connectable=0;fillColor=none;top=0;left=0;bottom=0;right=0;" vertex="1" parent="Oj7GcUm4BYMcSamk3wpx-22">
          <mxGeometry width="30" height="30" as="geometry">
            <mxRectangle width="30" height="30" as="alternateBounds" />
          </mxGeometry>
        </mxCell>
        <mxCell id="Oj7GcUm4BYMcSamk3wpx-24" value="geom(Polygon, 4326)" style="shape=partialRectangle;overflow=hidden;connectable=0;fillColor=none;top=0;left=0;bottom=0;right=0;align=left;spacingLeft=6;" vertex="1" parent="Oj7GcUm4BYMcSamk3wpx-22">
          <mxGeometry x="30" width="220" height="30" as="geometry">
            <mxRectangle width="220" height="30" as="alternateBounds" />
          </mxGeometry>
        </mxCell>
        <mxCell id="Oj7GcUm4BYMcSamk3wpx-25" value="intravilan" style="shape=table;startSize=30;container=1;collapsible=1;childLayout=tableLayout;fixedRows=1;rowLines=0;fontStyle=1;align=center;resizeLast=1;" vertex="1" parent="1">
          <mxGeometry x="30" y="360" width="250" height="160" as="geometry" />
        </mxCell>
        <mxCell id="Oj7GcUm4BYMcSamk3wpx-26" value="" style="shape=partialRectangle;collapsible=0;dropTarget=0;pointerEvents=0;fillColor=none;points=[[0,0.5],[1,0.5]];portConstraint=eastwest;top=0;left=0;right=0;bottom=1;" vertex="1" parent="Oj7GcUm4BYMcSamk3wpx-25">
          <mxGeometry y="30" width="250" height="30" as="geometry" />
        </mxCell>
        <mxCell id="Oj7GcUm4BYMcSamk3wpx-27" value="PK" style="shape=partialRectangle;overflow=hidden;connectable=0;fillColor=none;top=0;left=0;bottom=0;right=0;fontStyle=1;" vertex="1" parent="Oj7GcUm4BYMcSamk3wpx-26">
          <mxGeometry width="30" height="30" as="geometry">
            <mxRectangle width="30" height="30" as="alternateBounds" />
          </mxGeometry>
        </mxCell>
        <mxCell id="Oj7GcUm4BYMcSamk3wpx-28" value="fid serial not null" style="shape=partialRectangle;overflow=hidden;connectable=0;fillColor=none;top=0;left=0;bottom=0;right=0;align=left;spacingLeft=6;fontStyle=5;" vertex="1" parent="Oj7GcUm4BYMcSamk3wpx-26">
          <mxGeometry x="30" width="220" height="30" as="geometry">
            <mxRectangle width="220" height="30" as="alternateBounds" />
          </mxGeometry>
        </mxCell>
        <mxCell id="Oj7GcUm4BYMcSamk3wpx-29" value="" style="shape=partialRectangle;collapsible=0;dropTarget=0;pointerEvents=0;fillColor=none;points=[[0,0.5],[1,0.5]];portConstraint=eastwest;top=0;left=0;right=0;bottom=0;" vertex="1" parent="Oj7GcUm4BYMcSamk3wpx-25">
          <mxGeometry y="60" width="250" height="30" as="geometry" />
        </mxCell>
        <mxCell id="Oj7GcUm4BYMcSamk3wpx-30" value="" style="shape=partialRectangle;overflow=hidden;connectable=0;fillColor=none;top=0;left=0;bottom=0;right=0;" vertex="1" parent="Oj7GcUm4BYMcSamk3wpx-29">
          <mxGeometry width="30" height="30" as="geometry">
            <mxRectangle width="30" height="30" as="alternateBounds" />
          </mxGeometry>
        </mxCell>
        <mxCell id="Oj7GcUm4BYMcSamk3wpx-31" value="name varchar(50) NOT NULL" style="shape=partialRectangle;overflow=hidden;connectable=0;fillColor=none;top=0;left=0;bottom=0;right=0;align=left;spacingLeft=6;" vertex="1" parent="Oj7GcUm4BYMcSamk3wpx-29">
          <mxGeometry x="30" width="220" height="30" as="geometry">
            <mxRectangle width="220" height="30" as="alternateBounds" />
          </mxGeometry>
        </mxCell>
        <mxCell id="Oj7GcUm4BYMcSamk3wpx-32" value="" style="shape=partialRectangle;collapsible=0;dropTarget=0;pointerEvents=0;fillColor=none;points=[[0,0.5],[1,0.5]];portConstraint=eastwest;top=0;left=0;right=0;bottom=0;" vertex="1" parent="Oj7GcUm4BYMcSamk3wpx-25">
          <mxGeometry y="90" width="250" height="30" as="geometry" />
        </mxCell>
        <mxCell id="Oj7GcUm4BYMcSamk3wpx-33" value="" style="shape=partialRectangle;overflow=hidden;connectable=0;fillColor=none;top=0;left=0;bottom=0;right=0;" vertex="1" parent="Oj7GcUm4BYMcSamk3wpx-32">
          <mxGeometry width="30" height="30" as="geometry">
            <mxRectangle width="30" height="30" as="alternateBounds" />
          </mxGeometry>
        </mxCell>
        <mxCell id="Oj7GcUm4BYMcSamk3wpx-34" value="populatie int NOT NULL" style="shape=partialRectangle;overflow=hidden;connectable=0;fillColor=none;top=0;left=0;bottom=0;right=0;align=left;spacingLeft=6;" vertex="1" parent="Oj7GcUm4BYMcSamk3wpx-32">
          <mxGeometry x="30" width="220" height="30" as="geometry">
            <mxRectangle width="220" height="30" as="alternateBounds" />
          </mxGeometry>
        </mxCell>
        <mxCell id="Oj7GcUm4BYMcSamk3wpx-35" value="" style="shape=partialRectangle;collapsible=0;dropTarget=0;pointerEvents=0;fillColor=none;points=[[0,0.5],[1,0.5]];portConstraint=eastwest;top=0;left=0;right=0;bottom=0;" vertex="1" parent="Oj7GcUm4BYMcSamk3wpx-25">
          <mxGeometry y="120" width="250" height="30" as="geometry" />
        </mxCell>
        <mxCell id="Oj7GcUm4BYMcSamk3wpx-36" value="" style="shape=partialRectangle;overflow=hidden;connectable=0;fillColor=none;top=0;left=0;bottom=0;right=0;" vertex="1" parent="Oj7GcUm4BYMcSamk3wpx-35">
          <mxGeometry width="30" height="30" as="geometry">
            <mxRectangle width="30" height="30" as="alternateBounds" />
          </mxGeometry>
        </mxCell>
        <mxCell id="Oj7GcUm4BYMcSamk3wpx-37" value="geom(Polygon, 4326)" style="shape=partialRectangle;overflow=hidden;connectable=0;fillColor=none;top=0;left=0;bottom=0;right=0;align=left;spacingLeft=6;" vertex="1" parent="Oj7GcUm4BYMcSamk3wpx-35">
          <mxGeometry x="30" width="220" height="30" as="geometry">
            <mxRectangle width="220" height="30" as="alternateBounds" />
          </mxGeometry>
        </mxCell>
      </root>
    </mxGraphModel>
  </diagram>
</mxfile>
